<svg width="52" height="25" viewBox="0 0 52 25" fill="none" xmlns="http://www.w3.org/2000/svg">
<path d="M11.7967 0.865723H10.6404H9.74107L0.105469 24.1202H1.0048H2.16107H2.93192L12.5675 0.865723H11.7967Z" fill="#00FFC2"/>
<path d="M17.9638 24.1208H13.8527V8.57502H17.9638V10.5022C18.8632 8.96045 20.7903 8.18958 22.4605 8.18958C26.3147 8.18958 27.9849 10.8876 27.9849 14.3565V24.1208H23.8737V15.1274C23.8737 13.4572 22.9744 12.0439 21.0472 12.0439C19.2486 12.0439 18.2208 13.4572 18.2208 15.2559V24.1208H17.9638Z" fill="#FDFDF9"/>
<path d="M40.1898 15.1271L46.485 24.1205H41.346L37.3633 18.2105L35.5647 20.0092V24.1205H31.4535V1.76537H35.5647V14.3562L40.9606 8.57469H46.3565L40.1898 15.1271Z" fill="#FDFDF9"/>
<path d="M50.3399 8.44705C50.9822 8.44705 51.4961 8.96096 51.4961 9.60335C51.4961 10.2457 50.9822 10.7596 50.3399 10.7596C49.6975 10.7596 49.1836 10.2457 49.1836 9.60335C49.1836 8.96096 49.6975 8.44705 50.3399 8.44705ZM50.3399 10.6312C50.8538 10.6312 51.2392 10.2457 51.2392 9.60335C51.2392 9.08944 50.8538 8.57553 50.3399 8.57553C49.826 8.57553 49.4405 8.96096 49.4405 9.60335C49.4405 10.2457 49.826 10.6312 50.3399 10.6312ZM50.2114 10.2457H49.9544V8.96096H50.4683C50.7253 8.96096 50.8538 9.08944 50.8538 9.3464C50.8538 9.47487 50.7253 9.73183 50.5968 9.73183L50.8538 10.2457H50.5968L50.3399 9.73183H50.2114V10.2457ZM50.3399 9.60335C50.4683 9.60335 50.5968 9.47487 50.5968 9.47487C50.5968 9.3464 50.4683 9.21792 50.3399 9.21792H50.2114V9.60335H50.3399Z" fill="#FDFDF9"/>
</svg>
